# xmcd
#
# Track frame offsets:
#	150
#	16320
#	33877
#	50757
#	71235
#	87842
#	108077
#	123357
#	135937
#	149307
#	173927
#	189332
#
# Disc length: 2894 seconds
#
# Revision: 1
# Processed by: cddbd v1.5.1PL0 Copyright (c) Steve Scherf et al.
# Submitted via: CDex 1.50Beta5
#
DISCID=9d0b4c0c
DTITLE=宮城チドリ - ハイサイ沖縄〜島唄ベスト1
DYEAR=1994
DGENRE=
TTITLE0=宮城チドリ/安里屋ユンタ
TTITLE1=喜納昌吉/ハイサイおじさん
TTITLE2=津波洋子/二見情話
TTITLE3=喜納昌永グループ/黒島口説
TTITLE4=前川朝昭グループ/与那国小唄
TTITLE5=前川朝昭グループ/汗し水節
TTITLE6=喜納昌永グループ/谷茶前節
TTITLE7=比嘉艶子/てぃんさぐぬ花
TTITLE8=前川朝昭グループ/パラダイスうるま島
TTITLE9=饒辺愛子/なんた浜
TTITLE10=知名定男/うんじゅが情ど頼まりる
TTITLE11=屋嘉比清グループ/カチャーシー
EXTD=
EXTT0=
EXTT1=
EXTT2=
EXTT3=
EXTT4=
EXTT5=
EXTT6=
EXTT7=
EXTT8=
EXTT9=
EXTT10=
EXTT11=
PLAYORDER=
